<?xml version="1.0" encoding="UTF-8"?>
<svg width="255px" height="241px" viewBox="0 0 255 241" version="1.1" xmlns="http://www.w3.org/2000/svg" xmlns:xlink="http://www.w3.org/1999/xlink">
    <title>Group 5</title>
    <g id="Illustrations" stroke="none" stroke-width="1" fill="none" fill-rule="evenodd">
        <g id="logo" transform="translate(-187.000000, -297.000000)">
            <g id="Group-5" transform="translate(187.000000, 297.000000)">
                <g id="Group-4" transform="translate(26.000000, 17.000000)">
                    <g id="Group" transform="translate(11.000000, 0.000000)">
                        <rect id="Rectangle" stroke="#373737" stroke-width="2" fill="#FFFFFF" x="18" y="1" width="145" height="198" rx="6"></rect>
                        <rect id="Rectangle" stroke="#373737" stroke-width="2" transform="translate(73.500000, 91.500000) rotate(-270.000000) translate(-73.500000, -91.500000) " x="0" y="19" width="147" height="145" rx="6"></rect>
                        <rect id="Rectangle" stroke="#373737" stroke-width="2" transform="translate(107.500000, 108.500000) rotate(-270.000000) translate(-107.500000, -108.500000) " x="34" y="36" width="147" height="145" rx="6"></rect>
                        <rect id="Rectangle" fill="#FFFFFF" x="2" y="19" width="22" height="145" rx="4"></rect>
                        <rect id="Rectangle" fill="#FFFFFF" x="155" y="36" width="24" height="145" rx="4"></rect>
                    </g>
                    <path d="M152,34 C155.313708,34 158,36.6862915 158,40 L158,160 C158,163.313708 155.313708,166 152,166 L51,166 C49.2234197,166 47.6271816,165.227863 46.5285648,164.000869 L46,164 L45.9998276,163.317536 C45.3680857,162.367281 45,161.226626 45,160 L45,40 C45,36.6862915 47.6862915,34 51,34 L152,34 Z" id="Combined-Shape" fill="#373737"></path>
                    <g id="Group-3" transform="translate(84.000000, 194.000000)" fill="#FFFFFF">
                        <polyline id="Path-8" stroke="#373737" stroke-width="2" points="3 2 17.7057915 16.7057915 32.411583 2"></polyline>
                        <rect id="Rectangle" x="0" y="0" width="35" height="4"></rect>
                    </g>
                    <g id="Group-3" transform="translate(194.500000, 62.500000) rotate(-90.000000) translate(-194.500000, -62.500000) translate(177.000000, 54.000000)" fill="#FFFFFF">
                        <polyline id="Path-8" stroke="#373737" stroke-width="2" points="3 2 17.7057915 16.7057915 32.411583 2"></polyline>
                        <rect id="Rectangle" x="0" y="0" width="35" height="4"></rect>
                    </g>
                    <g id="Group-3" transform="translate(8.500000, 137.500000) rotate(-270.000000) translate(-8.500000, -137.500000) translate(-9.000000, 129.000000)" fill="#FFFFFF">
                        <polyline id="Path-8" stroke="#373737" stroke-width="2" points="3 2 17.7057915 16.7057915 32.411583 2"></polyline>
                        <rect id="Rectangle" x="0" y="0" width="35" height="4"></rect>
                    </g>
                </g>
                <g id="Group-2" transform="translate(83.000000, 65.000000)">
                    <rect id="Rectangle" fill="#F4E199" x="0" y="0" width="10" height="4" rx="2"></rect>
                    <rect id="Rectangle" fill="#C0E1EA" x="13" y="0" width="20" height="4" rx="2"></rect>
                    <rect id="Rectangle" fill="#F4E199" x="51" y="0" width="5" height="4" rx="2"></rect>
                    <rect id="Rectangle" fill="#FFA77A" x="15" y="9" width="30" height="4" rx="2"></rect>
                    <rect id="Rectangle" fill="#F4E199" x="23" y="18" width="13" height="4" rx="2"></rect>
                    <rect id="Rectangle" fill="#BADEE8" x="13" y="18" width="5" height="4" rx="2"></rect>
                    <rect id="Rectangle" fill="#BADEE8" x="0" y="9" width="10" height="4" rx="2"></rect>
                    <rect id="Rectangle" fill="#FFB350" x="40" y="18" width="20" height="4" rx="2"></rect>
                    <rect id="Rectangle" fill="#F4E199" x="0" y="27" width="15" height="4" rx="2"></rect>
                    <rect id="Rectangle" fill="#FFA77A" x="0" y="36" width="10" height="4" rx="2"></rect>
                    <rect id="Rectangle" fill="#FFB350" x="44" y="54" width="10" height="4" rx="2"></rect>
                    <rect id="Rectangle" fill="#FFB350" x="18" y="27" width="10" height="4" rx="2"></rect>
                    <rect id="Rectangle" fill="#C0E1EA" x="13" y="36" width="20" height="4" rx="2"></rect>
                    <rect id="Rectangle" fill="#F4E199" x="33" y="45" width="40" height="4" rx="2"></rect>
                    <rect id="Rectangle" fill="#FFA77A" x="10" y="45" width="20" height="4" rx="2"></rect>
                    <rect id="Rectangle" fill="#C0E1EA" x="10" y="54" width="30" height="4" rx="2"></rect>
                    <rect id="Rectangle" fill="#F4E199" x="0" y="63" width="30" height="4" rx="2"></rect>
                    <rect id="Rectangle" fill="#FFB350" x="6" y="72" width="40" height="4" rx="2"></rect>
                    <rect id="Rectangle" fill="#FFA77A" x="64" y="72" width="5" height="4" rx="2"></rect>
                    <rect id="Rectangle" fill="#C0E1EA" x="10" y="81" width="30" height="4" rx="2"></rect>
                    <rect id="Rectangle" fill="#F4E199" x="0" y="90" width="20" height="4" rx="2"></rect>
                    <rect id="Rectangle" fill="#FFA77A" x="0" y="99" width="10" height="4" rx="2"></rect>
                    <rect id="Rectangle" fill="#C0E1EA" x="13" y="99" width="19" height="4" rx="2"></rect>
                </g>
                <path d="M113,164 C114.104569,164 115,164.895431 115,166 C115,167.104569 114.104569,168 113,168 L112,168 C110.895431,168 110,167.104569 110,166 C110,164.895431 110.895431,164 112,164 L113,164 Z M128,164 C129.104569,164 130,164.895431 130,166 C130,167.104569 129.104569,168 128,168 L122,168 C120.895431,168 120,167.104569 120,166 C120,164.895431 120.895431,164 122,164 L128,164 Z M115,155 C116.104569,155 117,155.895431 117,157 C117,158.104569 116.104569,159 115,159 L99,159 C97.8954305,159 97,158.104569 97,157 C97,155.895431 97.8954305,155 99,155 L115,155 Z M135,146 C136.104569,146 137,146.895431 137,148 C137,149.104569 136.104569,150 135,150 L109,150 C107.895431,150 107,149.104569 107,148 C107,146.895431 107.895431,146 109,146 L135,146 Z M141,137 C142.104569,137 143,137.895431 143,139 C143,140.104569 142.104569,141 141,141 L105,141 C103.895431,141 103,140.104569 103,139 C103,137.895431 103.895431,137 105,137 L141,137 Z M125,128 C126.104569,128 127,128.895431 127,130 C127,131.104569 126.104569,132 125,132 L99,132 C97.8954305,132 97,131.104569 97,130 C97,128.895431 97.8954305,128 99,128 L125,128 Z M149,119 C150.104569,119 151,119.895431 151,121 C151,122.104569 150.104569,123 149,123 L143,123 C141.895431,123 141,122.104569 141,121 C141,119.895431 141.895431,119 143,119 L149,119 Z M121,119 C122.104569,119 123,119.895431 123,121 C123,122.104569 122.104569,123 121,123 L115,123 C113.895431,123 113,122.104569 113,121 C113,119.895431 113.895431,119 115,119 L121,119 Z M168,110 C169.104569,110 170,110.895431 170,112 C170,113.104569 169.104569,114 168,114 L163,114 C161.895431,114 161,113.104569 161,112 C161,110.895431 161.895431,110 163,110 L168,110 Z M125,110 C126.104569,110 127,110.895431 127,112 C127,113.104569 126.104569,114 125,114 L109,114 C107.895431,114 107,113.104569 107,112 C107,110.895431 107.895431,110 109,110 L125,110 Z M99,101 C100.104569,101 101,101.895431 101,103 C101,104.104569 100.104569,105 99,105 L98,105 C96.8954305,105 96,104.104569 96,103 C96,101.895431 96.8954305,101 98,101 L99,101 Z M128,101 C129.104569,101 130,101.895431 130,103 C130,104.104569 129.104569,105 128,105 L112,105 C110.895431,105 110,104.104569 110,103 C110,101.895431 110.895431,101 112,101 L128,101 Z M109,92 C110.104569,92 111,92.8954305 111,94 C111,95.1045695 110.104569,96 109,96 L108,96 C106.895431,96 106,95.1045695 106,94 C106,92.8954305 106.895431,92 108,92 L109,92 Z M123,92 C124.104569,92 125,92.8954305 125,94 C125,95.1045695 124.104569,96 123,96 L117,96 C115.895431,96 115,95.1045695 115,94 C115,92.8954305 115.895431,92 117,92 L123,92 Z M131,83 C132.104569,83 133,83.8954305 133,85 C133,86.1045695 132.104569,87 131,87 L115,87 C113.895431,87 113,86.1045695 113,85 C113,83.8954305 113.895431,83 115,83 L131,83 Z M155,83 C156.104569,83 157,83.8954305 157,85 C157,86.1045695 156.104569,87 155,87 L139,87 C137.895431,87 137,86.1045695 137,85 C137,83.8954305 137.895431,83 139,83 L155,83 Z M140,74 C141.104569,74 142,74.8954305 142,76 C142,77.1045695 141.104569,78 140,78 L114,78 C112.895431,78 112,77.1045695 112,76 C112,74.8954305 112.895431,74 114,74 L140,74 Z M91,65 C92.1045695,65 93,65.8954305 93,67 C93,68.1045695 92.1045695,69 91,69 L90,69 C88.8954305,69 88,68.1045695 88,67 C88,65.8954305 88.8954305,65 90,65 L91,65 Z M128,65 C129.104569,65 130,65.8954305 130,67 C130,68.1045695 129.104569,69 128,69 L112,69 C110.895431,69 110,68.1045695 110,67 C110,65.8954305 110.895431,65 112,65 L128,65 Z" id="Combined-Shape" fill="#FFFFFF"></path>
                <rect id="Rectangle" fill="#373737" x="54" y="36" width="2" height="147"></rect>
                <rect id="Rectangle" fill="#373737" x="199" y="52" width="2" height="147"></rect>
            </g>
        </g>
    </g>
</svg>