<?xml version="1.0" encoding="UTF-8"?>
<svg width="263px" height="244px" viewBox="0 0 263 244" version="1.1" xmlns="http://www.w3.org/2000/svg" xmlns:xlink="http://www.w3.org/1999/xlink">
    <title>Group 5</title>
    <g id="Layout" stroke="none" stroke-width="1" fill="none" fill-rule="evenodd">
        <g id="Artboard" transform="translate(-201.000000, -156.000000)">
            <g id="Group-5" transform="translate(201.000000, 156.000000)">
                <g id="Group-4" transform="translate(14.000000, 14.000000)">
                    <g id="Group" transform="translate(11.000000, 0.000000)">
                        <rect id="Rectangle" stroke="#373737" stroke-width="2" fill="#FFFFFF" x="32" y="1" width="147" height="203" rx="6"></rect>
                        <rect id="Rectangle" stroke="#373737" stroke-width="2" transform="translate(81.500000, 85.500000) rotate(-270.000000) translate(-81.500000, -85.500000) " x="8" y="5" width="147" height="161" rx="6"></rect>
                        <rect id="Rectangle" stroke="#373737" stroke-width="2" transform="translate(131.500000, 102.500000) rotate(-270.000000) translate(-131.500000, -102.500000) " x="58" y="22" width="147" height="161" rx="6"></rect>
                        <rect id="Rectangle" fill="#FFFFFF" x="2" y="13" width="41" height="145" rx="4"></rect>
                        <rect id="Rectangle" fill="#FFFFFF" x="170" y="30" width="41" height="145" rx="4"></rect>
                    </g>
                    <path d="M168,28 C171.313708,28 174,30.6862915 174,34 L174,154 C174,157.313708 171.313708,160 168,160 L67,160 C65.2234197,160 63.6271816,159.227863 62.5285648,158.000869 L62,158 L61.9998276,157.317536 C61.3680857,156.367281 61,155.226626 61,154 L61,34 C61,30.6862915 63.6862915,28 67,28 L168,28 Z" id="Combined-Shape" fill="#373737"></path>
                    <g id="Group-3" transform="translate(100.000000, 199.000000)" fill="#FFFFFF">
                        <polyline id="Path-8" stroke="#373737" stroke-width="2" points="3 2 17.7057915 16.7057915 32.411583 2"></polyline>
                        <rect id="Rectangle" x="0" y="0" width="35" height="4"></rect>
                    </g>
                    <g id="Group-3" transform="translate(226.500000, 54.500000) rotate(-90.000000) translate(-226.500000, -54.500000) translate(209.000000, 46.000000)" fill="#FFFFFF">
                        <polyline id="Path-8" stroke="#373737" stroke-width="2" points="3 2 17.7057915 16.7057915 32.411583 2"></polyline>
                        <rect id="Rectangle" x="0" y="0" width="35" height="4"></rect>
                    </g>
                    <g id="Group-3" transform="translate(8.500000, 126.500000) rotate(-270.000000) translate(-8.500000, -126.500000) translate(-9.000000, 118.000000)" fill="#FFFFFF">
                        <polyline id="Path-8" stroke="#373737" stroke-width="2" points="3 2 17.7057915 16.7057915 32.411583 2"></polyline>
                        <rect id="Rectangle" x="0" y="0" width="35" height="4"></rect>
                    </g>
                </g>
                <g id="Group-2" transform="translate(87.000000, 56.000000)">
                    <rect id="Rectangle" fill="#F4E199" x="0" y="0" width="10" height="4" rx="2"></rect>
                    <rect id="Rectangle" fill="#C0E1EA" x="13" y="0" width="20" height="4" rx="2"></rect>
                    <rect id="Rectangle" fill="#F4E199" x="51" y="0" width="5" height="4" rx="2"></rect>
                    <rect id="Rectangle" fill="#D53426" x="15" y="9" width="30" height="4" rx="2"></rect>
                    <rect id="Rectangle" fill="#F4E199" x="23" y="18" width="13" height="4" rx="2"></rect>
                    <rect id="Rectangle" fill="#BADEE8" x="13" y="18" width="5" height="4" rx="2"></rect>
                    <rect id="Rectangle" fill="#BADEE8" x="0" y="9" width="10" height="4" rx="2"></rect>
                    <rect id="Rectangle" fill="#FFB350" x="40" y="18" width="20" height="4" rx="2"></rect>
                    <rect id="Rectangle" fill="#F4E199" x="0" y="27" width="15" height="4" rx="2"></rect>
                    <rect id="Rectangle" fill="#D53426" x="0" y="36" width="10" height="4" rx="2"></rect>
                    <rect id="Rectangle" fill="#FFB350" x="44" y="54" width="10" height="4" rx="2"></rect>
                    <rect id="Rectangle" fill="#FFB350" x="18" y="27" width="10" height="4" rx="2"></rect>
                    <rect id="Rectangle" fill="#C0E1EA" x="13" y="36" width="20" height="4" rx="2"></rect>
                    <rect id="Rectangle" fill="#F4E199" x="33" y="45" width="40" height="4" rx="2"></rect>
                    <rect id="Rectangle" fill="#D53426" x="10" y="45" width="20" height="4" rx="2"></rect>
                    <rect id="Rectangle" fill="#C0E1EA" x="10" y="54" width="30" height="4" rx="2"></rect>
                    <rect id="Rectangle" fill="#F4E199" x="0" y="63" width="30" height="4" rx="2"></rect>
                    <rect id="Rectangle" fill="#FFB350" x="6" y="72" width="40" height="4" rx="2"></rect>
                    <rect id="Rectangle" fill="#D53426" x="64" y="72" width="5" height="4" rx="2"></rect>
                    <rect id="Rectangle" fill="#C0E1EA" x="10" y="81" width="30" height="4" rx="2"></rect>
                    <rect id="Rectangle" fill="#F4E199" x="0" y="90" width="20" height="4" rx="2"></rect>
                    <rect id="Rectangle" fill="#D53426" x="0" y="99" width="10" height="4" rx="2"></rect>
                    <rect id="Rectangle" fill="#C0E1EA" x="13" y="99" width="19" height="4" rx="2"></rect>
                </g>
                <path d="M117,155 C118.104569,155 119,155.895431 119,157 C119,158.104569 118.104569,159 117,159 L116,159 C114.895431,159 114,158.104569 114,157 C114,155.895431 114.895431,155 116,155 L117,155 Z M132,155 C133.104569,155 134,155.895431 134,157 C134,158.104569 133.104569,159 132,159 L126,159 C124.895431,159 124,158.104569 124,157 C124,155.895431 124.895431,155 126,155 L132,155 Z M119,146 C120.104569,146 121,146.895431 121,148 C121,149.104569 120.104569,150 119,150 L103,150 C101.895431,150 101,149.104569 101,148 C101,146.895431 101.895431,146 103,146 L119,146 Z M139,137 C140.104569,137 141,137.895431 141,139 C141,140.104569 140.104569,141 139,141 L113,141 C111.895431,141 111,140.104569 111,139 C111,137.895431 111.895431,137 113,137 L139,137 Z M145,128 C146.104569,128 147,128.895431 147,130 C147,131.104569 146.104569,132 145,132 L109,132 C107.895431,132 107,131.104569 107,130 C107,128.895431 107.895431,128 109,128 L145,128 Z M129,119 C130.104569,119 131,119.895431 131,121 C131,122.104569 130.104569,123 129,123 L103,123 C101.895431,123 101,122.104569 101,121 C101,119.895431 101.895431,119 103,119 L129,119 Z M153,110 C154.104569,110 155,110.895431 155,112 C155,113.104569 154.104569,114 153,114 L147,114 C145.895431,114 145,113.104569 145,112 C145,110.895431 145.895431,110 147,110 L153,110 Z M125,110 C126.104569,110 127,110.895431 127,112 C127,113.104569 126.104569,114 125,114 L119,114 C117.895431,114 117,113.104569 117,112 C117,110.895431 117.895431,110 119,110 L125,110 Z M172,101 C173.104569,101 174,101.895431 174,103 C174,104.104569 173.104569,105 172,105 L167,105 C165.895431,105 165,104.104569 165,103 C165,101.895431 165.895431,101 167,101 L172,101 Z M129,101 C130.104569,101 131,101.895431 131,103 C131,104.104569 130.104569,105 129,105 L113,105 C111.895431,105 111,104.104569 111,103 C111,101.895431 111.895431,101 113,101 L129,101 Z M103,92 C104.104569,92 105,92.8954305 105,94 C105,95.1045695 104.104569,96 103,96 L102,96 C100.895431,96 100,95.1045695 100,94 C100,92.8954305 100.895431,92 102,92 L103,92 Z M132,92 C133.104569,92 134,92.8954305 134,94 C134,95.1045695 133.104569,96 132,96 L116,96 C114.895431,96 114,95.1045695 114,94 C114,92.8954305 114.895431,92 116,92 L132,92 Z M113,83 C114.104569,83 115,83.8954305 115,85 C115,86.1045695 114.104569,87 113,87 L112,87 C110.895431,87 110,86.1045695 110,85 C110,83.8954305 110.895431,83 112,83 L113,83 Z M127,83 C128.104569,83 129,83.8954305 129,85 C129,86.1045695 128.104569,87 127,87 L121,87 C119.895431,87 119,86.1045695 119,85 C119,83.8954305 119.895431,83 121,83 L127,83 Z M135,74 C136.104569,74 137,74.8954305 137,76 C137,77.1045695 136.104569,78 135,78 L119,78 C117.895431,78 117,77.1045695 117,76 C117,74.8954305 117.895431,74 119,74 L135,74 Z M159,74 C160.104569,74 161,74.8954305 161,76 C161,77.1045695 160.104569,78 159,78 L143,78 C141.895431,78 141,77.1045695 141,76 C141,74.8954305 141.895431,74 143,74 L159,74 Z M144,65 C145.104569,65 146,65.8954305 146,67 C146,68.1045695 145.104569,69 144,69 L118,69 C116.895431,69 116,68.1045695 116,67 C116,65.8954305 116.895431,65 118,65 L144,65 Z M95,56 C96.1045695,56 97,56.8954305 97,58 C97,59.1045695 96.1045695,60 95,60 L94,60 C92.8954305,60 92,59.1045695 92,58 C92,56.8954305 92.8954305,56 94,56 L95,56 Z M132,56 C133.104569,56 134,56.8954305 134,58 C134,59.1045695 133.104569,60 132,60 L116,60 C114.895431,60 114,59.1045695 114,58 C114,56.8954305 114.895431,56 116,56 L132,56 Z" id="Combined-Shape" fill="#FFFFFF"></path>
                <rect id="Rectangle" fill="#373737" x="56" y="27" width="2" height="147"></rect>
                <rect id="Rectangle" fill="#373737" x="203" y="43" width="2" height="147"></rect>
            </g>
        </g>
    </g>
</svg>