<?xml version="1.0" encoding="UTF-8"?>
<svg width="263px" height="244px" viewBox="0 0 263 244" version="1.1" xmlns="http://www.w3.org/2000/svg" xmlns:xlink="http://www.w3.org/1999/xlink">
    <title>Group 5</title>
    <g id="Illustrations" stroke="none" stroke-width="1" fill="none" fill-rule="evenodd">
        <g id="Artboard" transform="translate(-425.000000, -319.000000)">
            <g id="Group-5" transform="translate(425.000000, 319.000000)">
                <g id="Group-4" transform="translate(14.000000, 14.000000)">
                    <g id="Group" transform="translate(11.000000, 0.000000)">
                        <rect id="Rectangle" stroke="#373737" stroke-width="2" fill="#FFFFFF" x="32" y="1" width="147" height="203" rx="6"></rect>
                        <rect id="Rectangle" stroke="#373737" stroke-width="2" transform="translate(81.500000, 85.500000) rotate(-270.000000) translate(-81.500000, -85.500000) " x="8" y="5" width="147" height="161" rx="6"></rect>
                        <rect id="Rectangle" stroke="#373737" stroke-width="2" transform="translate(131.500000, 102.500000) rotate(-270.000000) translate(-131.500000, -102.500000) " x="58" y="22" width="147" height="161" rx="6"></rect>
                        <rect id="Rectangle" fill="#FFFFFF" x="2" y="13" width="41" height="145" rx="4"></rect>
                        <rect id="Rectangle" fill="#FFFFFF" x="170" y="30" width="41" height="145" rx="4"></rect>
                    </g>
                    <path d="M168,28 C171.313708,28 174,30.6862915 174,34 L174,154 C174,157.313708 171.313708,160 168,160 L67,160 C65.2234197,160 63.6271816,159.227863 62.5285648,158.000869 L62,158 L61.9998276,157.317536 C61.3680857,156.367281 61,155.226626 61,154 L61,34 C61,30.6862915 63.6862915,28 67,28 L168,28 Z" id="Combined-Shape" fill="#373737"></path>
                    <g id="Group-3" transform="translate(100.000000, 199.000000)" fill="#FFFFFF">
                        <polyline id="Path-8" stroke="#373737" stroke-width="2" points="3 2 17.7057915 16.7057915 32.411583 2"></polyline>
                        <rect id="Rectangle" x="0" y="0" width="35" height="4"></rect>
                    </g>
                    <g id="Group-3" transform="translate(226.500000, 54.500000) rotate(-90.000000) translate(-226.500000, -54.500000) translate(209.000000, 46.000000)" fill="#FFFFFF">
                        <polyline id="Path-8" stroke="#373737" stroke-width="2" points="3 2 17.7057915 16.7057915 32.411583 2"></polyline>
                        <rect id="Rectangle" x="0" y="0" width="35" height="4"></rect>
                    </g>
                    <g id="Group-3" transform="translate(8.500000, 126.500000) rotate(-270.000000) translate(-8.500000, -126.500000) translate(-9.000000, 118.000000)" fill="#FFFFFF">
                        <polyline id="Path-8" stroke="#373737" stroke-width="2" points="3 2 17.7057915 16.7057915 32.411583 2"></polyline>
                        <rect id="Rectangle" x="0" y="0" width="35" height="4"></rect>
                    </g>
                </g>
                <path d="M102,155 C103.104569,155 104,155.895431 104,157 C104,158.104569 103.104569,159 102,159 L96,159 C94.8954305,159 94,158.104569 94,157 C94,155.895431 94.8954305,155 96,155 L102,155 Z M110,155 C111.104569,155 112,155.895431 112,157 C112,158.104569 111.104569,159 110,159 L109,159 C107.895431,159 107,158.104569 107,157 C107,155.895431 107.895431,155 109,155 L110,155 Z M112,146 C113.104569,146 114,146.895431 114,148 C114,149.104569 113.104569,150 112,150 L96,150 C94.8954305,150 94,149.104569 94,148 C94,146.895431 94.8954305,146 96,146 L112,146 Z M132,137 C133.104569,137 134,137.895431 134,139 C134,140.104569 133.104569,141 132,141 L106,141 C104.895431,141 104,140.104569 104,139 C104,137.895431 104.895431,137 106,137 L132,137 Z M138,128 C139.104569,128 140,128.895431 140,130 C140,131.104569 139.104569,132 138,132 L102,132 C100.895431,132 100,131.104569 100,130 C100,128.895431 100.895431,128 102,128 L138,128 Z M146,128 C147.104569,128 148,128.895431 148,130 C148,131.104569 147.104569,132 146,132 L145,132 C143.895431,132 143,131.104569 143,130 C143,128.895431 143.895431,128 145,128 L146,128 Z M122,119 C123.104569,119 124,119.895431 124,121 C124,122.104569 123.104569,123 122,123 L96,123 C94.8954305,123 94,122.104569 94,121 C94,119.895431 94.8954305,119 96,119 L122,119 Z M146,110 C147.104569,110 148,110.895431 148,112 C148,113.104569 147.104569,114 146,114 L140,114 C138.895431,114 138,113.104569 138,112 C138,110.895431 138.895431,110 140,110 L146,110 Z M132,110 C133.104569,110 134,110.895431 134,112 C134,113.104569 133.104569,114 132,114 L106,114 C104.895431,114 104,113.104569 104,112 C104,110.895431 104.895431,110 106,110 L132,110 Z M165,101 C166.104569,101 167,101.895431 167,103 C167,104.104569 166.104569,105 165,105 L129,105 C127.895431,105 127,104.104569 127,103 C127,101.895431 127.895431,101 129,101 L165,101 Z M122,101 C123.104569,101 124,101.895431 124,103 C124,104.104569 123.104569,105 122,105 L106,105 C104.895431,105 104,104.104569 104,103 C104,101.895431 104.895431,101 106,101 L122,101 Z M102,92 C103.104569,92 104,92.8954305 104,94 C104,95.1045695 103.104569,96 102,96 L96,96 C94.8954305,96 94,95.1045695 94,94 C94,92.8954305 94.8954305,92 96,92 L102,92 Z M125,92 C126.104569,92 127,92.8954305 127,94 C127,95.1045695 126.104569,96 125,96 L109,96 C107.895431,96 107,95.1045695 107,94 C107,92.8954305 107.895431,92 109,92 L125,92 Z M107,83 C108.104569,83 109,83.8954305 109,85 C109,86.1045695 108.104569,87 107,87 L96,87 C94.8954305,87 94,86.1045695 94,85 C94,83.8954305 94.8954305,83 96,83 L107,83 Z M120,83 C121.104569,83 122,83.8954305 122,85 C122,86.1045695 121.104569,87 120,87 L114,87 C112.895431,87 112,86.1045695 112,85 C112,83.8954305 112.895431,83 114,83 L120,83 Z M128,74 C129.104569,74 130,74.8954305 130,76 C130,77.1045695 129.104569,78 128,78 L112,78 C110.895431,78 110,77.1045695 110,76 C110,74.8954305 110.895431,74 112,74 L128,74 Z M152,74 C153.104569,74 154,74.8954305 154,76 C154,77.1045695 153.104569,78 152,78 L136,78 C134.895431,78 134,77.1045695 134,76 C134,74.8954305 134.895431,74 136,74 L152,74 Z M137,65 C138.104569,65 139,65.8954305 139,67 C139,68.1045695 138.104569,69 137,69 L111,69 C109.895431,69 109,68.1045695 109,67 C109,65.8954305 109.895431,65 111,65 L137,65 Z M102,56 C103.104569,56 104,56.8954305 104,58 C104,59.1045695 103.104569,60 102,60 L96,60 C94.8954305,60 94,59.1045695 94,58 C94,56.8954305 94.8954305,56 96,56 L102,56 Z M125,56 C126.104569,56 127,56.8954305 127,58 C127,59.1045695 126.104569,60 125,60 L109,60 C107.895431,60 107,59.1045695 107,58 C107,56.8954305 107.895431,56 109,56 L125,56 Z M133,56 C134.104569,56 135,56.8954305 135,58 C135,59.1045695 134.104569,60 133,60 L132,60 C130.895431,60 130,59.1045695 130,58 C130,56.8954305 130.895431,56 132,56 L133,56 Z" id="Combined-Shape" fill="#FFFFFF"></path>
                <rect id="Rectangle" fill="#373737" x="56" y="27" width="2" height="147"></rect>
                <rect id="Rectangle" fill="#373737" x="203" y="43" width="2" height="147"></rect>
            </g>
        </g>
    </g>
</svg>